<svg width="32" height="33" viewBox="0 0 32 33" fill="none" xmlns="http://www.w3.org/2000/svg">
<path d="M31.9499 8.31604C32.222 9.05129 31.3863 10.7669 29.4429 13.4628C29.1708 13.8304 28.821 14.3206 28.3934 14.9333C27.4994 16.0771 26.9942 16.8327 26.8775 17.2004C26.6832 17.6905 26.7609 18.1603 27.1108 18.6096C27.3051 18.8547 27.7521 19.3448 28.4517 20.0801H28.51V20.1414C30.1036 21.6527 31.1725 22.9394 31.7167 24.0015L31.8333 24.2465L31.9499 24.7061V25.2882L31.5418 25.7477L30.5506 25.9621L26.2945 26.0847C26.0224 26.1255 25.7018 26.0847 25.3325 25.9621C24.9633 25.8396 24.6815 25.717 24.4871 25.5945L24.1373 25.3494C23.7875 25.1043 23.3988 24.7367 22.9713 24.2465C22.5437 23.7564 22.1647 23.3071 21.8344 22.8986C21.504 22.4901 21.1639 22.1531 20.8141 21.8876C20.4642 21.6221 20.1533 21.5302 19.8812 21.6119C19.8424 21.6119 19.7938 21.6323 19.7355 21.6732C19.6772 21.714 19.58 21.8059 19.444 21.9489C19.3079 22.0918 19.1913 22.2654 19.0941 22.4697C18.997 22.6739 18.9095 22.9701 18.8318 23.3581C18.754 23.7462 18.7152 24.2057 18.7152 24.7367C18.7152 24.9001 18.6957 25.0533 18.6569 25.1962C18.618 25.3392 18.5791 25.4515 18.5403 25.5332L18.482 25.5945C18.2487 25.8396 17.9378 25.9621 17.5491 25.9621H15.6834C14.8672 26.0438 14.0412 25.9621 13.2056 25.717C12.3699 25.472 11.6411 25.1554 11.0192 24.7673C10.3973 24.3793 9.83372 23.9912 9.32843 23.6032C8.82314 23.2151 8.43446 22.8782 8.16238 22.5922L7.75426 22.1633C7.63765 22.0816 7.48218 21.9182 7.28784 21.6732C7.0935 21.4281 6.69509 20.8971 6.09263 20.0801C5.49017 19.2632 4.89743 18.3849 4.3144 17.4454C3.73137 16.506 3.05117 15.2703 2.27381 13.7385C1.49644 12.2068 0.777369 10.6239 0.116605 8.99002C0.0388685 8.78578 0 8.62239 0 8.49985C0 8.37731 0.0194342 8.27519 0.0583027 8.1935L0.116605 8.13223C0.272079 7.88714 0.583027 7.7646 1.04945 7.7646H5.65536C5.77197 7.7646 5.88857 7.79523 6.00518 7.8565L6.29669 8.00968L6.35499 8.07095C6.54934 8.1935 6.68538 8.37731 6.76311 8.62239C6.99632 9.19426 7.25869 9.79676 7.5502 10.4299C7.84171 11.063 8.06521 11.543 8.22068 11.8698L8.45389 12.3599C8.80371 13.0543 9.12437 13.6568 9.41589 14.1674C9.7074 14.678 9.96976 15.0763 10.203 15.3622C10.4362 15.6482 10.6694 15.8728 10.9026 16.0362C11.1358 16.1996 11.3302 16.2813 11.4856 16.2813C11.6411 16.2813 11.7966 16.2609 11.9521 16.22L12.0104 16.1281L12.2144 15.7298L12.4476 14.9333L12.5934 13.5241V11.3183C12.5545 10.869 12.4962 10.4503 12.4185 10.0623C12.3407 9.67422 12.263 9.3985 12.1853 9.23511L12.127 9.05129C11.8549 8.64282 11.369 8.37731 10.6694 8.25477C10.5528 8.25477 10.5917 8.1118 10.786 7.82587C10.9803 7.62163 11.1941 7.45824 11.4273 7.3357C12.0104 7.00892 13.3319 6.86595 15.3919 6.9068C16.2859 6.9068 17.0438 6.9885 17.6657 7.15189C17.8601 7.19273 18.035 7.26422 18.1904 7.36634C18.3459 7.46845 18.4625 7.61142 18.5403 7.79523C18.618 7.97905 18.6763 8.16286 18.7152 8.34667C18.754 8.53049 18.7735 8.796 18.7735 9.1432V10.0929C18.7346 10.4197 18.7152 10.8282 18.7152 11.3183V12.7888C18.7152 12.9114 18.7055 13.1565 18.686 13.5241C18.6666 13.8917 18.6569 14.1776 18.6569 14.3819C18.6569 14.5861 18.6763 14.821 18.7152 15.0865C18.754 15.352 18.8221 15.5767 18.9192 15.7605C19.0164 15.9443 19.1427 16.0771 19.2982 16.1587C19.3759 16.1996 19.4634 16.2302 19.5606 16.2507C19.6577 16.2711 19.8035 16.2098 19.9978 16.0668C20.1922 15.9239 20.4059 15.7196 20.6392 15.4541C20.8724 15.1886 21.1639 14.7904 21.5137 14.2593C21.8635 13.7283 22.2328 13.1156 22.6214 12.4212C23.2822 11.1958 23.8847 9.86824 24.4288 8.43858C24.4677 8.35689 24.5163 8.26498 24.5746 8.16286C24.6329 8.06074 24.7009 7.98926 24.7786 7.94841H24.837L24.8953 7.88714L25.1285 7.82587H25.4783L30.2591 7.7646C30.6867 7.72375 31.0462 7.74417 31.3377 7.82587C31.6292 7.90756 31.7944 8.00968 31.8333 8.13223L31.9499 8.31604Z" fill="white"/>
</svg>
